<svg width="184" height="43" version="1.1" xmlns="http://www.w3.org/2000/svg"><g id="header-logo" stroke="none" stroke-width="1" fill="none" fill-rule="evenodd"><g id="Wellthie_Green-Logo" transform="translate(0 1)"><g id="Fixed-logo" transform="translate(0 .433)"><path d="M54.473 14.696c-5.713 0-8.626 3.08-8.626 7.978V24.6h17.309v-1.926c0-4.897-2.913-7.978-8.683-7.978m0-3.19c8.402 0 12.435 4.786 12.435 11.388v3.027c0 .935-.447 1.54-1.68 1.54h-19.38v3.192c0 4.676 2.855 7.538 8.402 7.538 4.592 0 7.225-1.816 8.793-4.568.504-.66.896-.77 1.625-.385l1.176.605c.729.385.84.88.392 1.596-1.96 3.466-5.545 5.942-11.986 5.942-8.403 0-12.156-4.511-12.156-11.114v-7.153c0-7.263 4.257-11.609 12.379-11.609" id="Fill-1" fill="#037481"/><path d="M75.984 40.938H74.21c-.802 0-1.03-.221-1.03-.996V.996c0-.774.228-.996 1.03-.996h1.773c.8 0 1.03.222 1.03.996v38.946c0 .775-.23.996-1.03.996" id="Fill-3" fill="#037481"/><path d="M87.504 40.938h-1.773c-.802 0-1.03-.221-1.03-.996V.996c0-.774.228-.996 1.03-.996h1.773c.801 0 1.03.222 1.03.996v38.946c0 .775-.229.996-1.03.996" id="Fill-5" fill="#037481"/><path d="M103.212 1.385v11.27h8.11c.728 0 1.007.22 1.007.993v1.436c0 .718-.279.994-1.006.994h-8.11V30c0 6.57 1.956 7.84 7.998 7.84.783 0 1.007.277 1.007 1.05v1.49c0 .773-.224.994-1.007.994-8.615.166-11.747-2.374-11.747-11.263V16.078H94.15c-.728 0-1.007-.276-1.007-.994v-1.436c0-.773.28-.993 1.007-.993h5.314V1.385c0-.773.28-.993 1.007-.993h1.734c.783 0 1.007.22 1.007.993" id="Fill-7" fill="#037481"/><path d="M120.532.996v12.226c1.735-.774 4.87-1.549 8.786-1.549 7.668 0 11.138 3.983 11.138 10.843v17.426c0 .774-.28.996-1.008.996h-1.791c-.727 0-1.006-.222-1.006-.996V22.626c0-4.867-2.464-7.522-7.836-7.522-3.47 0-6.492.718-8.283 1.603v23.235c0 .774-.223.996-1.007.996h-1.735c-.784 0-1.008-.222-1.008-.996V.996c0-.774.224-.996 1.008-.996h1.735c.784 0 1.007.222 1.007.996" id="Fill-9" fill="#037481"/><path d="M151.651 13.565v26.39c0 .772-.277.994-.997.994h-1.772c-.72 0-.997-.222-.997-.994v-26.39c0-.773.277-.994.997-.994h1.772c.72 0 .997.22.997.994m.332-9.11v.387c0 1.545-.498 2.042-2.049 2.042h-.333c-1.55 0-2.049-.497-2.049-2.042v-.387c0-1.545.499-2.042 2.05-2.042h.332c1.55 0 2.049.497 2.049 2.042" id="Fill-11" fill="#037481"/><path d="M170.322 14.725c-5.774 0-8.718 3.076-8.718 7.967v1.923h17.493v-1.923c0-4.89-2.944-7.967-8.775-7.967m0-3.187c8.492 0 12.568 4.78 12.568 11.374v3.022c0 .934-.453 1.538-1.699 1.538h-19.587v3.188c0 4.67 2.887 7.527 8.491 7.527 4.643 0 7.304-1.813 8.889-4.56.51-.66.906-.77 1.642-.385l1.188.604c.737.385.85.88.397 1.594-1.981 3.46-5.605 5.934-12.116 5.934-8.491 0-12.284-4.506-12.284-11.099v-7.143c0-7.254 4.303-11.594 12.51-11.594" id="Fill-13" fill="#037481"/><g id="Group" transform="translate(0 12.124)"><path d="M37.591.247h-1.104c-1.215 0-1.545.11-1.767.994l-4.968 16.996a33.525 33.525 0 0 0-.507 2.114l.144.668.141.668.035.17c.123.584.23 1.09.322 1.432l.02.08.28 1.273.443 2.018 7.789-25.254c.276-.883.166-1.159-.828-1.159" id="Fill-15" fill="#037481"/><path d="M28.12 23.828c-.32-1.139-.705-3.507-1.366-5.573L21.375 2.101c-.283-.823-.51-.988-1.64-.988h-.92c-1.13 0-1.357.165-1.64.988l-5.38 16.154c-.66 2.066-1.045 4.434-1.364 5.573l-1.126 4.97c.12.018.253.027.399.027h1.188c.793 0 1.187-.217 1.413-.875l5.831-17.908c.62-1.975.904-3.945 1.13-4.655h.018c.226.71.51 2.68 1.13 4.655l5.83 17.908c.227.658.621.875 1.414.875h1.188c.146 0 .279-.009.399-.026l-1.126-4.97z" id="Fill-17" fill="#02C39A"/><path d="M.958.247h1.105c1.215 0 1.545.11 1.766.994l4.968 16.996c.196.702.363 1.423.508 2.114l-.144.668a136.292 136.292 0 0 0-.177.838c-.122.584-.23 1.09-.321 1.432l-.02.08-.28 1.273-.444 2.018L.131 1.406C-.145.523-.035.247.958.247" id="Fill-19" fill="#037481"/></g></g></g></g></svg>